<svg xmlns="http://www.w3.org/2000/svg" viewBox="0 0 231.09 209.96"><defs><style>.cls-1{fill:#3a474f;}.cls-2{fill:#e04403;}.cls-3{fill:#fff;}</style></defs><g id="Layer_2" data-name="Layer 2"><g id="Layer_1-2" data-name="Layer 1"><path class="cls-1" d="M5.49,205.74c-2.74,0-5.49-.89-5.49-7.89s3.67-8.11,6.46-8.11a8.18,8.18,0,0,1,3.54.8v2.09a10.34,10.34,0,0,0-3.54-.78c-1.79,0-3.93.89-3.93,5.89s1.62,5.91,3.09,5.91A13.15,13.15,0,0,0,8,203.34v-5.22H5.73l-.11-2.05h4.91v8.8A18.8,18.8,0,0,1,5.49,205.74Z"/><path class="cls-1" d="M21.21,205.52l-.33-1.4a5.57,5.57,0,0,1-3.51,1.62c-1.89,0-3.29-.85-3.29-3.44v-8.56h2.53v8.16c0,1.26.45,1.68,1.45,1.68a5.69,5.69,0,0,0,2.69-1v-8.82h2.53v11.78Z"/><path class="cls-1" d="M33.07,205.52l-.29-1.22a4,4,0,0,1-3.11,1.44c-1.44,0-3.4-.56-3.4-3.73s2.6-3.78,4.47-3.78h2v-1.09c0-1.4-.74-1.53-2-1.53a14.34,14.34,0,0,0-3.44.62v-2.07a13.27,13.27,0,0,1,3.86-.64c2.23,0,4.07.58,4.07,3.82v8.18Zm-.35-5.85-1.18,0c-1.8,0-2.73.44-2.73,2.17s.73,1.92,1.64,1.92a4,4,0,0,0,2.27-.92Z"/><path class="cls-1" d="M43.07,196a2.45,2.45,0,0,0-1.69.69v8.84H38.84V193.74h2l.34,1.38a2.68,2.68,0,0,1,2.35-1.6,5.75,5.75,0,0,1,1.14.13v2.56A7.78,7.78,0,0,0,43.07,196Z"/><path class="cls-1" d="M52.46,205.52l-.29-1.22a4,4,0,0,1-3.11,1.44c-1.44,0-3.4-.56-3.4-3.73s2.6-3.78,4.47-3.78h2v-1.09c0-1.4-.74-1.53-2-1.53a14.23,14.23,0,0,0-3.44.62v-2.07a13.27,13.27,0,0,1,3.86-.64c2.22,0,4.07.58,4.07,3.82v8.18Zm-.35-5.85-1.18,0c-1.8,0-2.73.44-2.73,2.17s.73,1.92,1.64,1.92a4,4,0,0,0,2.27-.92Z"/><path class="cls-1" d="M65.41,205.52v-8.45c0-1.22-.69-1.37-1.62-1.37a6.08,6.08,0,0,0-3,1v8.8H58.3V193.74h2l.45,1.36a6.55,6.55,0,0,1,3.86-1.58c2,0,3.31.82,3.31,3.51v8.49Z"/><path class="cls-1" d="M74.65,205.74c-1.65,0-2.94-.53-2.94-3.07v-7.13h-2v-1.8h2l.16-2.64,2.38-.91v3.55h2.66l-.26,1.8h-2.4v7.16c0,.86.37,1,1,1a11.69,11.69,0,0,0,2-.4v2A8.87,8.87,0,0,1,74.65,205.74Z"/><path class="cls-1" d="M83.64,207.07c-.73,2.45-2.13,2.89-3.53,2.89a9.1,9.1,0,0,1-2.29-.38v-2a14.22,14.22,0,0,0,2.09.33c.82,0,1.31-.6,1.64-2l.16-.64-4.47-11.58h2.91l2.63,8.89,2.11-8.89h2.77Z"/><path class="cls-1" d="M103.23,192.23H99.75v13.29H97.21V192.23H93.44V190h10.08Z"/><path class="cls-1" d="M108.3,196a2.45,2.45,0,0,0-1.69.69v8.84h-2.54V193.74h2l.34,1.38a2.68,2.68,0,0,1,2.35-1.6,5.75,5.75,0,0,1,1.14.13v2.56A7.78,7.78,0,0,0,108.3,196Z"/><path class="cls-1" d="M118.91,205.52l-.33-1.4a5.57,5.57,0,0,1-3.51,1.62c-1.89,0-3.29-.85-3.29-3.44v-8.56h2.53v8.16c0,1.26.45,1.68,1.45,1.68a5.69,5.69,0,0,0,2.69-1v-8.82H121v11.78Z"/><path class="cls-1" d="M126.79,205.74a11.6,11.6,0,0,1-3-.51V203.1a14.47,14.47,0,0,0,2.84.57c1.09,0,2-.2,2-1.42,0-1-.67-1.24-1.56-1.6l-1-.42a3.37,3.37,0,0,1-2.47-3.24c0-2.52,1.89-3.47,4.15-3.47a8.72,8.72,0,0,1,2.89.51v2a12.24,12.24,0,0,0-2.73-.49c-1.16,0-1.89.32-1.89,1.27s.8,1.22,1.56,1.51l1.13.42a3.31,3.31,0,0,1,2.4,3.36C131.15,205.25,128.86,205.74,126.79,205.74Z"/><path class="cls-1" d="M137,205.74c-1.65,0-2.93-.53-2.93-3.07v-7.13h-2v-1.8h2l.15-2.64,2.38-.91v3.55h2.66l-.26,1.8h-2.4v7.16c0,.86.38,1,1,1a11.48,11.48,0,0,0,2-.4v2A8.87,8.87,0,0,1,137,205.74Z"/><path class="cls-1" d="M151,205.52h-3.2V190h3.31c3.69,0,5.89.57,5.89,4a3.27,3.27,0,0,1-2.75,3.44c1.55.27,3.2,1,3.2,3.64C157.43,205.12,155,205.52,151,205.52Zm.14-13.62h-.8v4.69h.89c2.24,0,3.24-.36,3.24-2.49C154.45,192.16,153.34,191.9,151.12,191.9Zm.09,6.55h-.89v5.13h.93c2.35,0,3.64-.24,3.64-2.55S153.56,198.45,151.21,198.45Z"/><path class="cls-1" d="M166.22,205.52l-.29-1.22a4,4,0,0,1-3.11,1.44c-1.44,0-3.4-.56-3.4-3.73s2.6-3.78,4.47-3.78h2v-1.09c0-1.4-.73-1.53-2-1.53a14.45,14.45,0,0,0-3.45.62v-2.07a13.38,13.38,0,0,1,3.87-.64c2.22,0,4.07.58,4.07,3.82v8.18Zm-.36-5.85-1.17,0c-1.8,0-2.74.44-2.74,2.17s.74,1.92,1.65,1.92a3.9,3.9,0,0,0,2.26-.92Z"/><path class="cls-1" d="M179.17,205.52v-8.45c0-1.22-.69-1.37-1.62-1.37a6.08,6.08,0,0,0-3,1v8.8h-2.53V193.74h2l.45,1.36a6.55,6.55,0,0,1,3.86-1.58c2,0,3.31.82,3.31,3.51v8.49Z"/><path class="cls-1" d="M185.36,205.52v-16h2.53v16Zm6.53.22-3.62-7,3.07-5h3l-3.51,5,3.95,6.82Z"/><path class="cls-1" d="M209.86,205.52h-7V190h2.54v13.3h4.71Z"/><path class="cls-1" d="M215,205.74c-1.64,0-2.93-.53-2.93-3.07v-7.13h-2v-1.8h2l.16-2.64,2.37-.91v3.55h2.67l-.27,1.8h-2.4v7.16c0,.86.38,1,1,1a11.52,11.52,0,0,0,2-.4v2A8.79,8.79,0,0,1,215,205.74Z"/><path class="cls-1" d="M226.61,205.52l-.31-1.11a4.39,4.39,0,0,1-3.18,1.33c-1.75,0-4.4-.78-4.4-6.11s3.36-6.11,4.84-6.11a3.31,3.31,0,0,1,2.49,1v-5h2.54v16Zm-.56-9.27a3.67,3.67,0,0,0-2.06-.73c-1.34,0-2.74.4-2.74,4.11,0,3.87,1.27,4.16,2.51,4.16a4.08,4.08,0,0,0,2.29-.94Z"/><rect class="cls-2" x="59.23" width="171.86" height="171.87"/><rect class="cls-3" x="157.61" y="24.43" width="42.97" height="42.97"/><path class="cls-3" d="M103.72,139.13c-7,0-14.46-1.95-14.46-18.95s9-20,16.57-20a19.57,19.57,0,0,1,8.89,2v6.06a31.25,31.25,0,0,0-8.89-1.89c-3.84,0-9,2.06-9,13.37,0,12,4,13.44,6.77,13.44a33,33,0,0,0,5.15-.55V121.1h-5.15l-.54-5.8h13.27v21.88A52.79,52.79,0,0,1,103.72,139.13Z"/><path class="cls-3" d="M145.8,107.18h-8.34v31.41h-7.59V107.18h-9.2v-6.5h26Z"/><path class="cls-3" d="M162,139.13c-6.34,0-13.43-2-13.43-19.5s8.93-19.49,14.13-19.49a17,17,0,0,1,7,1.35v6.12a24.14,24.14,0,0,0-6.61-1.3c-3.68,0-6.93,2.22-6.93,13.32,0,9.92,2.33,13.27,6.39,13.27a24.18,24.18,0,0,0,7.15-1.35v6.12A18.29,18.29,0,0,1,162,139.13Z"/><path class="cls-3" d="M187.28,139.13c-5.85,0-13.54-1.19-13.54-19.5s8.18-19.49,13.54-19.49,13.54,1.3,13.54,19.49C200.82,138.1,193,139.13,187.28,139.13Zm0-33.58c-3.79,0-6,2.49-6,14.08,0,11.76,2.76,14.09,6,14.09s5.95-2.17,5.95-14.09C193.23,108.26,191,105.55,187.28,105.55Z"/></g></g></svg>