<svg width="233" height="101" viewBox="0 0 233 101" fill="none" xmlns="http://www.w3.org/2000/svg">
<path d="M68 1L1 30L14.5 43.5L68 1ZM68 1L42.25 63.25L26.5 53L68 1Z" stroke="#3F83F8" stroke-width="0.5"/>
<path d="M14.75 43.25L66.75 2.25L26.5 52.75L17.5 68L14.75 43.25Z" fill="#BFD6FD" stroke="#3F83F8" stroke-width="0.5"/>
<path d="M17.9199 68.25L26.4999 53L34.9999 58.5L17.9199 68.25Z" fill="#3F83F8" stroke="#3F83F8" stroke-width="0.5"/>
<path d="M18 73.0922C22.8021 86.0577 40.2575 107.595 74.5442 78.4944M74.5442 78.4944C78.5059 75.7933 84.2684 68.2301 82.1074 65.1688C78.7169 60.3654 72.3833 63.0078 74.5442 78.4944ZM74.5442 78.4944C80.9069 79.2147 95.6492 82.6722 103.717 90.7396" stroke="#3F83F8" stroke-dasharray="2.88 2.88"/>
<line x1="67.997" y1="1.50001" x2="232.076" y2="0.500009" stroke="#D9D9D9"/>
</svg>
